<svg width="24" height="24" viewBox="0 0 24 24" fill="none" xmlns="http://www.w3.org/2000/svg">
<g clip-path="url(#clip0_1_2)">
<path d="M19 7.54545H18.18L16.48 2.44C16.19 1.57818 15.44 1 14.6 1H12V3.18182H14.6L16.06 7.54545H11.25L10.89 6.45455H12V4.27273H7V6.45455H8.75L10.57 11.9091H9.9C9.46 9.47636 7.59 7.67636 5.25 7.55636C2.45 7.40364 0 9.94545 0 13C0 16.0545 2.2 18.4545 5 18.4545C7.46 18.4545 9.45 16.6109 9.9 14.0909H14.1C14.54 16.5236 16.41 18.3236 18.75 18.4436C21.55 18.5855 24 16.0545 24 12.9891C24 9.94545 21.8 7.54545 19 7.54545ZM7.82 14.0909C7.42 15.3673 6.33 16.2727 5 16.2727C3.32 16.2727 2 14.8327 2 13C2 11.1673 3.32 9.72727 5 9.72727C6.33 9.72727 7.42 10.6327 7.82 11.9091H5V14.0909H7.82ZM14.1 11.9091H12.7L11.97 9.72727H15C14.56 10.36 14.24 11.0909 14.1 11.9091ZM19 16.2727C17.32 16.2727 16 14.8327 16 13C16 11.9855 16.41 11.1127 17.05 10.5127L18.01 13.3927L19.89 12.6509L18.92 9.73818C18.94 9.73818 18.97 9.72727 19 9.72727C20.68 9.72727 22 11.1673 22 13C22 14.8327 20.68 16.2727 19 16.2727Z" fill="#FF0000"/>
<path d="M11 21.7273H7L13 25V22.8182H17L11 19.5455V21.7273Z" fill="#FF0000"/>
</g>
<defs>
<clipPath id="clip0_1_2">
<rect width="24" height="24" fill="white"/>
</clipPath>
</defs>
</svg>
